<?xml version="1.0" standalone="no"?>
<svg xmlns:xlink="http://www.w3.org/1999/xlink" id="wave" style="transform:rotate(180deg); transition: 0.3s" viewBox="0 0 1440 160" version="1.1" xmlns="http://www.w3.org/2000/svg"><defs><linearGradient id="sw-gradient-0" x1="0" x2="0" y1="1" y2="0"><stop stop-color="rgba(255, 249, 234, 1)" offset="0%"/><stop stop-color="rgba(255, 249, 234, 1)" offset="100%"/></linearGradient></defs><path style="transform:translate(0, 0px); opacity:1" fill="url(#sw-gradient-0)" d="M0,96L40,88C80,80,160,64,240,48C320,32,400,16,480,32C560,48,640,96,720,109.3C800,123,880,101,960,101.3C1040,101,1120,123,1200,112C1280,101,1360,59,1440,56C1520,53,1600,91,1680,93.3C1760,96,1840,64,1920,58.7C2000,53,2080,75,2160,90.7C2240,107,2320,117,2400,117.3C2480,117,2560,107,2640,88C2720,69,2800,43,2880,34.7C2960,27,3040,37,3120,45.3C3200,53,3280,59,3360,64C3440,69,3520,75,3600,74.7C3680,75,3760,69,3840,69.3C3920,69,4000,75,4080,85.3C4160,96,4240,112,4320,101.3C4400,91,4480,53,4560,48C4640,43,4720,69,4800,85.3C4880,101,4960,107,5040,114.7C5120,123,5200,133,5280,125.3C5360,117,5440,91,5520,77.3C5600,64,5680,64,5720,64L5760,64L5760,160L5720,160C5680,160,5600,160,5520,160C5440,160,5360,160,5280,160C5200,160,5120,160,5040,160C4960,160,4880,160,4800,160C4720,160,4640,160,4560,160C4480,160,4400,160,4320,160C4240,160,4160,160,4080,160C4000,160,3920,160,3840,160C3760,160,3680,160,3600,160C3520,160,3440,160,3360,160C3280,160,3200,160,3120,160C3040,160,2960,160,2880,160C2800,160,2720,160,2640,160C2560,160,2480,160,2400,160C2320,160,2240,160,2160,160C2080,160,2000,160,1920,160C1840,160,1760,160,1680,160C1600,160,1520,160,1440,160C1360,160,1280,160,1200,160C1120,160,1040,160,960,160C880,160,800,160,720,160C640,160,560,160,480,160C400,160,320,160,240,160C160,160,80,160,40,160L0,160Z"/></svg>